<?xml version="1.0" encoding="UTF-8" standalone="no"?>
<svg width="140px" height="17px" viewBox="0 0 140 17" version="1.1" xmlns="http://www.w3.org/2000/svg" xmlns:xlink="http://www.w3.org/1999/xlink">
    <!-- Generator: Sketch 3.8.2 (29753) - http://www.bohemiancoding.com/sketch -->
    <title>SHOWCASE</title>
    <desc>Created with Sketch.</desc>
    <defs></defs>
    <g id="Page-1" stroke="none" stroke-width="1" fill="none" fill-rule="evenodd">
        <g id="Landing-Large" transform="translate(-286.000000, -36.000000)" fill="#FFFFFF">
            <path d="M286.676758,48.8525391 L288.535156,47.6171875 C289.050784,48.4980513 289.732906,49.1407857 290.581543,49.5454102 C291.43018,49.9500346 292.345047,50.1523438 293.326172,50.1523438 C293.712893,50.1523438 294.085285,50.1254885 294.443359,50.0717773 C294.801434,50.0180661 295.150552,49.9285488 295.490723,49.8032227 C295.830894,49.6778965 296.126301,49.520346 296.376953,49.3305664 C296.627605,49.1407868 296.829915,48.8972997 296.983887,48.6000977 C297.137859,48.3028956 297.214844,47.9681008 297.214844,47.5957031 C297.214844,47.2734359 297.14502,46.9816094 297.005371,46.7202148 C296.865722,46.4588203 296.683107,46.240398 296.45752,46.0649414 C296.231932,45.8894848 295.943687,45.735515 295.592773,45.6030273 C295.24186,45.4705397 294.885581,45.3649092 294.523926,45.2861328 C294.16227,45.2073564 293.7487,45.1357425 293.283203,45.0712891 C292.796222,45.0068356 292.362958,44.9388024 291.983398,44.8671875 C291.603839,44.7955726 291.199221,44.6988938 290.769531,44.5771484 C290.339842,44.455403 289.965659,44.3193367 289.646973,44.1689453 C289.328286,44.0185539 289.016766,43.8287772 288.712402,43.5996094 C288.408039,43.3704416 288.159181,43.1162123 287.96582,42.8369141 C287.77246,42.5576158 287.6167,42.2264017 287.498535,41.8432617 C287.380371,41.4601218 287.321289,41.0250675 287.321289,40.5380859 C287.328451,39.7932905 287.503905,39.1308623 287.847656,38.5507812 C288.205731,37.9635387 288.676592,37.5016293 289.260254,37.1650391 C289.843916,36.8284488 290.474118,36.57601 291.150879,36.4077148 C291.82764,36.2394197 292.531246,36.1552734 293.261719,36.1552734 C295.99741,36.1552734 297.9095,37.0218012 298.998047,38.7548828 L297.128906,40.0117188 C296.76367,39.4889297 296.240889,39.0753596 295.560547,38.7709961 C294.880205,38.4666326 294.135421,38.3072917 293.326172,38.2929688 C292.266271,38.2929688 291.406904,38.500649 290.748047,38.9160156 C290.089189,39.3313823 289.759766,39.9007125 289.759766,40.6240234 C289.759766,40.9104832 289.827799,41.1682931 289.963867,41.3974609 C290.099936,41.6266288 290.273599,41.8146152 290.484863,41.9614258 C290.696127,42.1082364 290.973631,42.2389317 291.317383,42.3535156 C291.661135,42.4680995 291.995929,42.5594072 292.321777,42.6274414 C292.647625,42.6954756 293.039711,42.7617184 293.498047,42.8261719 C293.99219,42.8977868 294.439777,42.971191 294.84082,43.0463867 C295.241864,43.1215824 295.662595,43.2254225 296.103027,43.3579102 C296.543459,43.4903978 296.931964,43.6372062 297.268555,43.7983398 C297.605145,43.9594735 297.930988,44.1617826 298.246094,44.4052734 C298.561199,44.6487642 298.819009,44.9191066 299.019531,45.2163086 C299.220053,45.5135106 299.381184,45.8644185 299.50293,46.269043 C299.624675,46.6736674 299.685547,47.115883 299.685547,47.5957031 C299.678385,48.2688836 299.554851,48.8758111 299.314941,49.4165039 C299.075031,49.9571967 298.754559,50.4083641 298.353516,50.7700195 C297.952472,51.131675 297.47803,51.4324532 296.930176,51.6723633 C296.382321,51.9122733 295.80762,52.085937 295.206055,52.1933594 C294.604489,52.3007818 293.970706,52.3544922 293.304688,52.3544922 C291.757805,52.3544922 290.434739,52.0823595 289.335449,51.5380859 C288.23616,50.9938124 287.349938,50.098639 286.676758,48.8525391 L286.676758,48.8525391 Z M303.446289,52 L303.446289,36.5957031 L305.916992,36.5957031 L305.916992,43.3095703 L314.048828,43.3095703 L314.048828,36.5957031 L316.498047,36.5957031 L316.498047,52 L314.048828,52 L314.048828,45.5976562 L305.916992,45.5976562 L305.916992,52 L303.446289,52 Z M320.40918,44.3837891 C320.40918,42.8369063 320.743975,41.451178 321.413574,40.2265625 C322.083174,39.001947 323.021316,38.0441115 324.228027,37.3530273 C325.434739,36.6619432 326.800774,36.3164062 328.326172,36.3164062 C329.350266,36.3235677 330.293778,36.4721665 331.156738,36.762207 C332.019698,37.0522475 332.755531,37.4514949 333.364258,37.9599609 C333.972985,38.468427 334.490395,39.0628221 334.916504,39.7431641 C335.342613,40.423506 335.657714,41.1521771 335.861816,41.9291992 C336.065919,42.7062213 336.167969,43.5172484 336.167969,44.3623047 C336.167969,45.207361 336.067709,46.0165977 335.867188,46.7900391 C335.666666,47.5634804 335.353355,48.2885708 334.927246,48.965332 C334.501137,49.6420932 333.983727,50.2293269 333.375,50.7270508 C332.766273,51.2247746 332.025069,51.6168605 331.151367,51.9033203 C330.277665,52.1897801 329.32162,52.3330078 328.283203,52.3330078 C327.244786,52.3330078 326.288741,52.1861994 325.415039,51.8925781 C324.541337,51.5989569 323.800133,51.2014999 323.191406,50.7001953 C322.582679,50.1988907 322.067059,49.6098667 321.644531,48.9331055 C321.222003,48.2563443 320.910483,47.5348346 320.709961,46.7685547 C320.509439,46.0022748 320.40918,45.2073609 320.40918,44.3837891 L320.40918,44.3837891 Z M322.847656,44.4052734 C322.854818,44.96387 322.924641,45.5081354 323.057129,46.0380859 C323.189617,46.5680365 323.399087,47.0800757 323.685547,47.5742188 C323.972007,48.0683618 324.321124,48.498045 324.73291,48.8632812 C325.144696,49.2285175 325.654945,49.520344 326.263672,49.7387695 C326.872399,49.9571951 327.545569,50.0664062 328.283203,50.0664062 C329.207036,50.0664062 330.025224,49.9106461 330.737793,49.5991211 C331.450362,49.2875961 332.017902,48.8650743 332.44043,48.331543 C332.862958,47.7980117 333.18164,47.2000359 333.396484,46.5375977 C333.611329,45.8751594 333.71875,45.1643918 333.71875,44.4052734 C333.71875,43.674801 333.611329,42.9729851 333.396484,42.2998047 C333.18164,41.6266242 332.862958,41.010745 332.44043,40.4521484 C332.017902,39.8935519 331.452152,39.4423845 330.743164,39.0986328 C330.034176,38.7548811 329.22852,38.5758464 328.326172,38.5615234 C326.59309,38.5615234 325.24675,39.1022081 324.287109,40.1835938 C323.327469,41.2649794 322.847656,42.6721919 322.847656,44.4052734 L322.847656,44.4052734 Z M338.5,36.5957031 L341.25,36.5957031 L345.160156,48.4550781 L349.145508,36.5957031 L350.724609,36.5957031 L354.795898,48.4550781 L358.630859,36.5957031 L361.380859,36.5957031 L355.880859,52.0214844 L353.700195,52.0214844 L351.648438,46.5859375 L349.961914,41.4189453 L348.264648,46.6074219 L346.245117,52.0214844 L344.085938,52.0214844 L338.5,36.5957031 Z M363.755859,44.4052734 L363.755859,44.3193359 C363.755859,43.5244101 363.856119,42.754561 364.056641,42.0097656 C364.264324,41.2363243 364.588377,40.5058628 365.028809,39.8183594 C365.46924,39.1308559 366.002764,38.5292995 366.629395,38.0136719 C367.256025,37.4980443 368.020503,37.0898453 368.922852,36.7890625 C369.8252,36.4882797 370.80989,36.3378906 371.876953,36.3378906 C372.929693,36.3378906 373.939448,36.5348288 374.90625,36.9287109 C375.873052,37.3225931 376.73958,37.9026654 377.505859,38.6689453 L375.862305,40.2480469 C375.332354,39.7252578 374.720056,39.3313815 374.025391,39.0664062 C373.330726,38.801431 372.614587,38.6689453 371.876953,38.6689453 C370.931636,38.6689453 370.086592,38.8318669 369.341797,39.1577148 C368.597001,39.4835628 367.999026,39.9204074 367.547852,40.4682617 C367.096677,41.016116 366.756512,41.6230435 366.527344,42.2890625 C366.305337,42.933597 366.194336,43.610348 366.194336,44.3193359 L366.194336,44.3837891 C366.201497,45.1142615 366.31787,45.8053353 366.543457,46.4570312 C366.769044,47.1087272 367.102049,47.7031223 367.54248,48.2402344 C367.982912,48.7773464 368.575517,49.2052393 369.320312,49.5239258 C370.065108,49.8426123 370.917313,50.0019531 371.876953,50.0019531 C372.607426,50.0019531 373.339677,49.8551447 374.07373,49.5615234 C374.807784,49.2679022 375.439776,48.8561224 375.969727,48.3261719 L377.65625,50.0234375 C376.109367,51.5488358 374.182954,52.3115234 371.876953,52.3115234 C370.788406,52.3115234 369.792973,52.1665054 368.890625,51.8764648 C367.988277,51.5864243 367.225589,51.1925481 366.602539,50.6948242 C365.979489,50.1971004 365.451337,49.611657 365.018066,48.9384766 C364.584796,48.2652961 364.267905,47.5473671 364.067383,46.784668 C363.866861,46.0219688 363.763021,45.2288453 363.755859,44.4052734 L363.755859,44.4052734 Z M379.418945,52 L386.336914,36.5957031 L389.011719,36.5957031 L395.918945,52 L393.308594,52 L391.836914,48.7666016 L383.490234,48.7666016 L382.040039,52 L379.418945,52 Z M384.414062,46.5214844 L390.93457,46.5214844 L387.668945,39.1953125 L384.414062,46.5214844 Z M397.789062,48.8525391 L399.647461,47.6171875 C400.163089,48.4980513 400.845211,49.1407857 401.693848,49.5454102 C402.542485,49.9500346 403.457352,50.1523438 404.438477,50.1523438 C404.825197,50.1523438 405.197589,50.1254885 405.555664,50.0717773 C405.913739,50.0180661 406.262856,49.9285488 406.603027,49.8032227 C406.943198,49.6778965 407.238606,49.520346 407.489258,49.3305664 C407.73991,49.1407868 407.942219,48.8972997 408.096191,48.6000977 C408.250164,48.3028956 408.327148,47.9681008 408.327148,47.5957031 C408.327148,47.2734359 408.257325,46.9816094 408.117676,46.7202148 C407.978027,46.4588203 407.795411,46.240398 407.569824,46.0649414 C407.344237,45.8894848 407.055991,45.735515 406.705078,45.6030273 C406.354165,45.4705397 405.997886,45.3649092 405.63623,45.2861328 C405.274575,45.2073564 404.861005,45.1357425 404.395508,45.0712891 C403.908526,45.0068356 403.475262,44.9388024 403.095703,44.8671875 C402.716144,44.7955726 402.311526,44.6988938 401.881836,44.5771484 C401.452146,44.455403 401.077964,44.3193367 400.759277,44.1689453 C400.440591,44.0185539 400.129071,43.8287772 399.824707,43.5996094 C399.520344,43.3704416 399.271485,43.1162123 399.078125,42.8369141 C398.884765,42.5576158 398.729004,42.2264017 398.61084,41.8432617 C398.492675,41.4601218 398.433594,41.0250675 398.433594,40.5380859 C398.440755,39.7932905 398.616209,39.1308623 398.959961,38.5507812 C399.318036,37.9635387 399.788897,37.5016293 400.372559,37.1650391 C400.95622,36.8284488 401.586422,36.57601 402.263184,36.4077148 C402.939945,36.2394197 403.643551,36.1552734 404.374023,36.1552734 C407.109714,36.1552734 409.021804,37.0218012 410.110352,38.7548828 L408.241211,40.0117188 C407.875975,39.4889297 407.353194,39.0753596 406.672852,38.7709961 C405.99251,38.4666326 405.247725,38.3072917 404.438477,38.2929688 C403.378575,38.2929688 402.519209,38.500649 401.860352,38.9160156 C401.201494,39.3313823 400.87207,39.9007125 400.87207,40.6240234 C400.87207,40.9104832 400.940103,41.1682931 401.076172,41.3974609 C401.21224,41.6266288 401.385904,41.8146152 401.597168,41.9614258 C401.808432,42.1082364 402.085936,42.2389317 402.429688,42.3535156 C402.773439,42.4680995 403.108234,42.5594072 403.434082,42.6274414 C403.75993,42.6954756 404.152016,42.7617184 404.610352,42.8261719 C405.104495,42.8977868 405.552081,42.971191 405.953125,43.0463867 C406.354169,43.1215824 406.7749,43.2254225 407.215332,43.3579102 C407.655764,43.4903978 408.044269,43.6372062 408.380859,43.7983398 C408.71745,43.9594735 409.043293,44.1617826 409.358398,44.4052734 C409.673504,44.6487642 409.931314,44.9191066 410.131836,45.2163086 C410.332358,45.5135106 410.493489,45.8644185 410.615234,46.269043 C410.73698,46.6736674 410.797852,47.115883 410.797852,47.5957031 C410.79069,48.2688836 410.667156,48.8758111 410.427246,49.4165039 C410.187336,49.9571967 409.866864,50.4083641 409.46582,50.7700195 C409.064777,51.131675 408.590335,51.4324532 408.04248,51.6723633 C407.494626,51.9122733 406.919925,52.085937 406.318359,52.1933594 C405.716794,52.3007818 405.083011,52.3544922 404.416992,52.3544922 C402.870109,52.3544922 401.547043,52.0823595 400.447754,51.5380859 C399.348465,50.9938124 398.462243,50.098639 397.789062,48.8525391 L397.789062,48.8525391 Z M414.558594,52 L414.558594,36.5957031 L425.870117,36.5957031 L425.870117,39.0019531 L417.029297,39.0019531 L417.029297,43.1591797 L425.515625,43.1591797 L425.515625,45.4472656 L417.029297,45.4472656 L417.029297,49.5830078 L425.93457,49.5830078 L425.93457,52 L414.558594,52 Z" id="SHOWCASE"></path>
        </g>
    </g>
</svg>