<?xml version="1.0" encoding="UTF-8" standalone="no"?>
<svg width="23px" height="18px" viewBox="0 0 23 18" version="1.1" xmlns="http://www.w3.org/2000/svg" xmlns:xlink="http://www.w3.org/1999/xlink">
    <!-- Generator: sketchtool 3.8.3 (29802) - http://www.bohemiancoding.com/sketch -->
    <title>89434905-E819-4465-954C-FED0C1848635</title>
    <desc>Created with sketchtool.</desc>
    <defs></defs>
    <g id="Landing" stroke="none" stroke-width="1" fill="none" fill-rule="evenodd">
        <g id="Signed-Up" transform="translate(-615.000000, -523.000000)" fill="#FFFFFF">
            <g id="Sign-Up-Modal" transform="translate(416.000000, 337.000000)">
                <g id="Field" transform="translate(184.000000, 171.000000)">
                    <g id="social-twitter-white" transform="translate(15.000000, 15.000000)">
                        <g id="Layer_1">
                            <path d="M22.9465116,2.1328125 C22.1004228,2.49375 21.1959831,2.7375 20.2429175,2.85 C21.2154334,2.2875 21.9642706,1.396875 22.3143763,0.3375 C21.405074,0.8578125 20.3985201,1.2375 19.3238901,1.4390625 C18.4632135,0.553125 17.2378436,0 15.8860465,0 C13.2845666,0 11.1790698,2.034375 11.1790698,4.5421875 C11.1790698,4.8984375 11.2179704,5.2453125 11.3006342,5.578125 C7.38625793,5.390625 3.91437632,3.58125 1.594926,0.8296875 C1.19133192,1.5 0.957928118,2.2828125 0.957928118,3.1125 C0.957928118,4.6875 1.79429175,6.0796875 3.05856237,6.8953125 C2.28054968,6.8765625 1.55116279,6.6703125 0.919027484,6.328125 L0.919027484,6.384375 C0.919027484,8.5875 2.54312896,10.4203125 4.69725159,10.8375 C4.30338266,10.940625 3.88520085,10.996875 3.45729387,10.996875 C3.15581395,10.996875 2.85919662,10.96875 2.57230444,10.9125 C3.17040169,12.7171875 4.91120507,14.0296875 6.97293869,14.0671875 C5.36342495,15.2859375 3.33086681,16.0125 1.12325581,16.0125 C0.74397463,16.0125 0.369556025,15.9890625 1.77635684e-15,15.946875 C2.07632135,17.25 4.55137421,18 7.20634249,18 C15.8763214,18 20.6124736,11.0765625 20.6124736,5.071875 C20.6124736,4.875 20.607611,4.678125 20.5978858,4.4859375 C21.5169133,3.84375 22.3143763,3.046875 22.9465116,2.1328125 L22.9465116,2.1328125 Z" id="Shape"></path>
                        </g>
                    </g>
                </g>
            </g>
        </g>
    </g>
</svg>