<?xml version="1.0" encoding="UTF-8" standalone="no"?>
<svg width="24px" height="19px" viewBox="0 0 24 19" version="1.1" xmlns="http://www.w3.org/2000/svg" xmlns:xlink="http://www.w3.org/1999/xlink">
    <!-- Generator: sketchtool 3.8.2 (29753) - http://www.bohemiancoding.com/sketch -->
    <title>22EC983C-A085-4FB1-9D50-5327BE646042</title>
    <desc>Created with sketchtool.</desc>
    <defs></defs>
    <g id="Page-1" stroke="none" stroke-width="1" fill="none" fill-rule="evenodd">
        <g id="Landing-Large" transform="translate(-1539.000000, -3451.000000)" fill="#A9AFB6">
            <g id="social-twitter" transform="translate(1539.000000, 3451.000000)">
                <g id="Layer_1">
                    <path d="M23.944186,2.25130208 C23.0613108,2.63229167 22.1175476,2.88958333 21.1230444,3.00833333 C22.1378436,2.41458333 22.9192389,1.47447917 23.2845666,0.35625 C22.3357294,0.90546875 21.2854123,1.30625 20.1640592,1.51901042 C19.2659619,0.583854167 17.987315,0 16.5767442,0 C13.8621564,0 11.6651163,2.14739583 11.6651163,4.79453125 C11.6651163,5.17057292 11.7057082,5.53671875 11.7919662,5.88802083 C7.70739958,5.69010417 4.0845666,3.78020833 1.66427061,0.87578125 C1.24312896,1.58333333 0.999577167,2.40963542 0.999577167,3.28541667 C0.999577167,4.94791667 1.87230444,6.41744792 3.19154334,7.27838542 C2.37970402,7.25859375 1.61860465,7.04088542 0.958985201,6.6796875 L0.958985201,6.7390625 C0.958985201,9.06458333 2.65369979,10.9992187 4.90147992,11.4395833 C4.49048626,11.5484375 4.05412262,11.6078125 3.60761099,11.6078125 C3.29302326,11.6078125 2.98350951,11.578125 2.68414376,11.51875 C3.30824524,13.4236979 5.12473573,14.8091146 7.27610994,14.8486979 C5.59661734,16.1351562 3.4756871,16.9020833 1.17209302,16.9020833 C0.776321353,16.9020833 0.385623679,16.8773437 1.77635684e-15,16.8328125 C2.16659619,18.2083333 4.74926004,19 7.51966173,19 C16.5665962,19 21.5086681,11.6919271 21.5086681,5.35364583 C21.5086681,5.14583333 21.5035941,4.93802083 21.4934461,4.73515625 C22.4524313,4.05729167 23.2845666,3.21614583 23.944186,2.25130208 L23.944186,2.25130208 Z" id="Shape"></path>
                </g>
            </g>
        </g>
    </g>
</svg>